<svg xmlns="http://www.w3.org/2000/svg" viewBox="0 -134.5 601 601">
  <defs>
    <!-- solo el contorno exterior (primer subpath hasta z) para recortar el blanco -->
    <clipPath id="outer" clipPathUnits="userSpaceOnUse">
      <path transform="translate(0,332) scale(0.1,-0.1)"
        d="M2977 3282 c-47 -49 -130 -92 -228 -116 -124 -31 -146 -43 -220 -126
l-63 -70 -90 6 c-108 7 -147 -4 -257 -71 -79 -47 -166 -75 -236 -75 l-43 0 0
-45 c0 -62 -40 -182 -83 -247 -64 -95 -70 -120 -64 -240 3 -60 2 -108 -3 -108
-19 0 -132 -115 -152 -154 -12 -23 -27 -70 -35 -105 -18 -86 -41 -134 -99
-211 l-49 -65 23 -25 c67 -70 93 -127 141 -306 14 -54 68 -123 131 -169 l51
-38 -7 -56 c-17 -124 -5 -176 65 -286 50 -77 75 -164 67 -231 l-6 -51 73 -6
c39 -3 83 -10 97 -15 14 -6 36 -13 50 -16 14 -3 50 -22 80 -42 97 -64 142 -77
251 -72 l96 5 63 -69 c71 -79 111 -102 210 -123 85 -18 136 -42 213 -102 l57
-45 52 42 c65 51 156 94 232 109 85 16 153 58 210 128 l48 61 93 -5 c109 -7
156 6 249 66 73 47 178 81 250 81 l53 0 0 75 c1 78 10 103 104 275 28 53 30
60 28 169 l-1 115 28 20 c52 38 103 87 123 119 10 18 29 73 41 122 24 98 52
155 112 227 l39 47 -46 56 c-60 75 -81 119 -106 222 -24 101 -56 153 -131 213
l-53 42 -5 128 c-5 127 -5 128 -41 181 -63 93 -81 137 -92 236 l-11 93 -48 0
c-63 0 -185 40 -244 79 -73 50 -130 69 -208 69 -38 0 -82 -4 -97 -8 -25 -8
-32 -4 -66 38 -81 100 -127 131 -228 152 -33 7 -78 19 -100 28 -45 17 -144 81
-164 106 -18 22 -23 20 -54 -12z"/>
    </clipPath>
  </defs>

  <!-- blanco interior: recortado al contorno exterior, el anillo negro lo tapa por encima -->
  <rect x="0" y="-134.5" width="601" height="601" fill="#ffffff" clip-path="url(#outer)"/>

  <!-- anillo negro: el subpath interior crea el hueco con la regla de relleno -->
  <g transform="translate(0,332) scale(0.1,-0.1)" fill="#0a0a0a" fill-rule="evenodd" stroke="none">
    <path d="M2977 3282 c-47 -49 -130 -92 -228 -116 -124 -31 -146 -43 -220 -126
l-63 -70 -90 6 c-108 7 -147 -4 -257 -71 -79 -47 -166 -75 -236 -75 l-43 0 0
-45 c0 -62 -40 -182 -83 -247 -64 -95 -70 -120 -64 -240 3 -60 2 -108 -3 -108
-19 0 -132 -115 -152 -154 -12 -23 -27 -70 -35 -105 -18 -86 -41 -134 -99
-211 l-49 -65 23 -25 c67 -70 93 -127 141 -306 14 -54 68 -123 131 -169 l51
-38 -7 -56 c-17 -124 -5 -176 65 -286 50 -77 75 -164 67 -231 l-6 -51 73 -6
c39 -3 83 -10 97 -15 14 -6 36 -13 50 -16 14 -3 50 -22 80 -42 97 -64 142 -77
251 -72 l96 5 63 -69 c71 -79 111 -102 210 -123 85 -18 136 -42 213 -102 l57
-45 52 42 c65 51 156 94 232 109 85 16 153 58 210 128 l48 61 93 -5 c109 -7
156 6 249 66 73 47 178 81 250 81 l53 0 0 75 c1 78 10 103 104 275 28 53 30
60 28 169 l-1 115 28 20 c52 38 103 87 123 119 10 18 29 73 41 122 24 98 52
155 112 227 l39 47 -46 56 c-60 75 -81 119 -106 222 -24 101 -56 153 -131 213
l-53 42 -5 128 c-5 127 -5 128 -41 181 -63 93 -81 137 -92 236 l-11 93 -48 0
c-63 0 -185 40 -244 79 -73 50 -130 69 -208 69 -38 0 -82 -4 -97 -8 -25 -8
-32 -4 -66 38 -81 100 -127 131 -228 152 -33 7 -78 19 -100 28 -45 17 -144 81
-164 106 -18 22 -23 20 -54 -12z m163 -216 c27 -15 82 -34 121 -42 103 -21
137 -43 207 -129 l32 -40 103 0 c97 0 105 -2 157 -32 103 -60 157 -82 234 -92
43 -6 79 -11 82 -11 2 0 4 -17 4 -38 0 -61 34 -166 78 -239 53 -87 68 -152 55
-232 -9 -56 -8 -62 11 -75 88 -60 131 -122 157 -227 24 -98 43 -138 98 -204
l40 -49 -32 -35 c-54 -60 -78 -108 -104 -204 -28 -106 -57 -154 -128 -210 -27
-22 -50 -42 -50 -46 1 -3 4 -37 9 -76 9 -84 -5 -133 -64 -228 -39 -62 -70
-161 -70 -224 0 -18 -3 -33 -7 -33 -35 -1 -154 -23 -178 -32 -16 -7 -64 -32
-105 -58 l-75 -45 -107 -1 -107 0 -35 -46 c-48 -62 -113 -103 -199 -124 -99
-24 -132 -39 -199 -91 l-58 -44 -58 44 c-74 58 -101 71 -191 91 -98 22 -118
34 -187 109 l-59 64 -81 -5 c-93 -5 -137 6 -203 51 -61 42 -132 67 -210 74
-36 3 -69 11 -73 17 -4 6 -8 32 -8 58 0 59 -31 144 -81 221 -43 67 -54 119
-46 217 l6 67 -51 39 c-62 47 -102 108 -118 177 -19 86 -50 155 -96 214 -24
31 -44 59 -44 63 0 3 8 15 18 26 61 66 93 135 132 284 9 35 27 60 83 114 l71
69 1 106 0 106 47 75 c52 84 76 151 80 225 l3 50 90 15 c59 10 107 25 140 44
28 16 70 41 95 55 41 23 55 26 148 26 l102 0 39 46 c64 75 101 96 208 124 93
24 155 56 224 116 21 18 22 18 60 -15 21 -18 61 -45 89 -60z"/>
  </g>

  <!-- forma central: rojo acento -->
  <g transform="translate(0,332) scale(0.1,-0.1)" fill="#8B1A1A" stroke="none">
    <path d="M2865 2261 c-286 -71 -475 -311 -475 -605 0 -148 35 -256 118 -369
113 -152 317 -257 502 -257 121 0 279 55 386 135 60 45 84 72 138 155 131 201
137 437 17 650 -132 234 -420 356 -686 291z"/>
  </g>
</svg>
